<svg width="25" height="23" viewBox="0 0 25 23" fill="none" xmlns="http://www.w3.org/2000/svg">
<path d="M23.0265 18.9903V10.999C23.0265 9.79929 22.5473 8.648 21.6759 7.82336C20.6545 6.8567 19.2374 5.55262 18.0933 4.63928C15.9292 2.9116 14.8491 1.5 12.2632 1.5C9.67736 1.5 8.59728 2.9116 6.43315 4.63928C5.28908 5.55262 3.87196 6.8567 2.85054 7.82336C1.97918 8.648 1.5 9.79929 1.5 10.999V18.9903C1.5 20.4764 2.70472 21.2828 4.19081 21.2828H8.0271C8.57938 21.2828 9.0271 20.8351 9.0271 20.2828V15.9457V14.9848C9.0271 13.174 10.4951 11.706 12.3059 11.706C14.1168 11.706 15.5848 13.174 15.5848 14.9848V15.9457V20.2828C15.5848 20.8351 16.0325 21.2828 16.5848 21.2828H20.3357C21.8218 21.2828 23.0265 20.4764 23.0265 18.9903Z" stroke="#B8B8B8" stroke-width="3"/>
</svg>
