<svg width="22" height="23" viewBox="0 0 22 23" fill="none" xmlns="http://www.w3.org/2000/svg">
<path d="M3.01677 21.8204H18.0475C19.4835 21.8204 20.4747 20.3824 19.9637 19.0404C18.7524 15.8596 15.7026 13.7575 12.299 13.7575H8.716C5.29851 13.7575 2.25282 15.9135 1.11702 19.1368C0.655288 20.4471 1.62746 21.8204 3.01677 21.8204Z" fill="black"/>
<path d="M10.5968 9.13934C12.8444 9.13934 14.6665 7.31729 14.6665 5.06967C14.6665 2.82205 12.8444 1 10.5968 1C8.34921 1 6.52716 2.82205 6.52716 5.06967C6.52716 7.31729 8.34921 9.13934 10.5968 9.13934Z" fill="black"/>
<path d="M3.01677 21.8204H18.0475C19.4835 21.8204 20.4747 20.3824 19.9637 19.0404C18.7524 15.8596 15.7026 13.7575 12.299 13.7575H8.716C5.29851 13.7575 2.25282 15.9135 1.11702 19.1368C0.655288 20.4471 1.62746 21.8204 3.01677 21.8204Z" stroke="black" stroke-width="2"/>
<path d="M10.5968 9.13934C12.8444 9.13934 14.6665 7.31729 14.6665 5.06967C14.6665 2.82205 12.8444 1 10.5968 1C8.34921 1 6.52716 2.82205 6.52716 5.06967C6.52716 7.31729 8.34921 9.13934 10.5968 9.13934Z" stroke="black" stroke-width="2"/>
</svg>
