<svg width="46" height="46" viewBox="0 0 46 46" fill="none" xmlns="http://www.w3.org/2000/svg">
<g clip-path="url(#clip0_116_2288)">
<path d="M23.0119 0.34848C13.5533 0.34848 10.787 0.358238 10.2493 0.402844C8.30824 0.564192 7.10039 0.869814 5.78451 1.52497C4.77042 2.02853 3.97065 2.61224 3.18133 3.43048C1.74383 4.92269 0.872621 6.75851 0.557243 8.94072C0.403909 10.0001 0.359303 10.2162 0.350243 15.6274C0.346758 17.4312 0.350243 19.8051 0.350243 22.9892C0.350243 32.4401 0.360697 35.2036 0.406 35.7403C0.562818 37.629 0.85903 38.8174 1.4863 40.1172C2.68509 42.6054 4.97464 44.4733 7.67191 45.1703C8.60585 45.4107 9.63736 45.5431 10.9616 45.6059C11.5227 45.6303 17.2413 45.6477 22.9634 45.6477C28.6855 45.6477 34.4077 45.6407 34.9548 45.6128C36.4881 45.5407 37.3785 45.4212 38.363 45.1668C41.0777 44.4663 43.3254 42.6263 44.5486 40.1033C45.1636 38.8348 45.4755 37.6012 45.6167 35.811C45.6473 35.4207 45.6602 29.1978 45.6602 22.9833C45.6602 16.7677 45.6463 10.5563 45.6156 10.166C45.4728 8.3469 45.1609 7.12372 44.5259 5.83084C44.0049 4.7725 43.4264 3.98213 42.5866 3.174C41.0878 1.74242 39.2547 0.871207 37.0704 0.556177C36.0121 0.403192 35.8013 0.357889 30.3858 0.34848H23.0119Z" fill="url(#paint0_radial_116_2288)"/>
<path d="M23.0119 0.34848C13.5533 0.34848 10.787 0.358238 10.2493 0.402844C8.30824 0.564192 7.10039 0.869814 5.78451 1.52497C4.77042 2.02853 3.97065 2.61224 3.18133 3.43048C1.74383 4.92269 0.872621 6.75851 0.557243 8.94072C0.403909 10.0001 0.359303 10.2162 0.350243 15.6274C0.346758 17.4312 0.350243 19.8051 0.350243 22.9892C0.350243 32.4401 0.360697 35.2036 0.406 35.7403C0.562818 37.629 0.85903 38.8174 1.4863 40.1172C2.68509 42.6054 4.97464 44.4733 7.67191 45.1703C8.60585 45.4107 9.63736 45.5431 10.9616 45.6059C11.5227 45.6303 17.2413 45.6477 22.9634 45.6477C28.6855 45.6477 34.4077 45.6407 34.9548 45.6128C36.4881 45.5407 37.3785 45.4212 38.363 45.1668C41.0777 44.4663 43.3254 42.6263 44.5486 40.1033C45.1636 38.8348 45.4755 37.6012 45.6167 35.811C45.6473 35.4207 45.6602 29.1978 45.6602 22.9833C45.6602 16.7677 45.6463 10.5563 45.6156 10.166C45.4728 8.3469 45.1609 7.12372 44.5259 5.83084C44.0049 4.7725 43.4264 3.98213 42.5866 3.174C41.0878 1.74242 39.2547 0.871207 37.0704 0.556177C36.0121 0.403192 35.8013 0.357889 30.3858 0.34848H23.0119Z" fill="url(#paint1_radial_116_2288)"/>
<path d="M23.0014 6.27264C18.4585 6.27264 17.8884 6.29251 16.1042 6.3737C14.3234 6.45525 13.1079 6.73717 12.0443 7.15083C10.9441 7.57807 10.0109 8.14958 9.08114 9.07969C8.15069 10.0094 7.57917 10.9427 7.15054 12.0425C6.73584 13.1064 6.45357 14.3223 6.37342 16.1024C6.29361 17.8866 6.27271 18.4571 6.27271 22.9999C6.27271 27.5428 6.29292 28.1111 6.37377 29.8954C6.45566 31.6761 6.73758 32.8917 7.15089 33.9552C7.57848 35.0554 8.14999 35.9886 9.0801 36.9184C10.0095 37.8489 10.9427 38.4218 12.0422 38.849C13.1065 39.2627 14.3224 39.5446 16.1028 39.6261C17.887 39.7073 18.4568 39.7272 22.9993 39.7272C27.5425 39.7272 28.1109 39.7073 29.8951 39.6261C31.6759 39.5446 32.8928 39.2627 33.957 38.849C35.0569 38.4218 35.9887 37.8489 36.9181 36.9184C37.8486 35.9886 38.4201 35.0554 38.8487 33.9556C39.2599 32.8917 39.5422 31.6758 39.6258 29.8957C39.706 28.1115 39.7269 27.5428 39.7269 22.9999C39.7269 18.4571 39.706 17.8869 39.6258 16.1027C39.5422 14.3219 39.2599 13.1064 38.8487 12.0429C38.4201 10.9427 37.8486 10.0094 36.9181 9.07969C35.9877 8.14924 35.0572 7.57772 33.956 7.15083C32.8896 6.73717 31.6734 6.45525 29.8927 6.3737C28.1084 6.29251 27.5404 6.27264 22.9961 6.27264H23.0014ZM21.5008 9.28704C21.9462 9.28634 22.4431 9.28704 23.0014 9.28704C27.4676 9.28704 27.9969 9.30307 29.7606 9.38322C31.3915 9.4578 32.2766 9.73031 32.8663 9.95927C33.6469 10.2624 34.2034 10.6249 34.7885 11.2103C35.374 11.7958 35.7364 12.3534 36.0403 13.134C36.2692 13.7229 36.5421 14.6081 36.6163 16.239C36.6965 18.0023 36.7139 18.532 36.7139 22.9961C36.7139 27.4602 36.6965 27.9899 36.6163 29.7532C36.5417 31.3841 36.2692 32.2693 36.0403 32.8582C35.7371 33.6388 35.374 34.1946 34.7885 34.7798C34.2031 35.3652 33.6472 35.7276 32.8663 36.0308C32.2773 36.2608 31.3915 36.5326 29.7606 36.6072C27.9972 36.6874 27.4676 36.7048 23.0014 36.7048C18.5348 36.7048 18.0055 36.6874 16.2422 36.6072C14.6112 36.5319 13.7261 36.2594 13.1361 36.0305C12.3555 35.7273 11.7979 35.3649 11.2125 34.7794C10.627 34.1939 10.2646 33.6378 9.96072 32.8568C9.73177 32.2679 9.4589 31.3827 9.38467 29.7518C9.30452 27.9885 9.28849 27.4588 9.28849 22.9919C9.28849 18.525 9.30452 17.9981 9.38467 16.2348C9.45925 14.6039 9.73177 13.7187 9.96072 13.1291C10.2639 12.3485 10.627 11.7909 11.2125 11.2054C11.7979 10.62 12.3555 10.2576 13.1361 9.95369C13.7257 9.72369 14.6112 9.45187 16.2422 9.37695C17.7852 9.30725 18.3833 9.28634 21.5008 9.28286V9.28704ZM31.9302 12.0645C30.8221 12.0645 29.923 12.9625 29.923 14.071C29.923 15.1792 30.8221 16.0783 31.9302 16.0783C33.0384 16.0783 33.9375 15.1792 33.9375 14.071C33.9375 12.9629 33.0384 12.0638 31.9302 12.0638V12.0645ZM23.0014 14.4098C18.2574 14.4098 14.4112 18.256 14.4112 22.9999C14.4112 27.7438 18.2574 31.5883 23.0014 31.5883C27.7453 31.5883 31.5901 27.7438 31.5901 22.9999C31.5901 18.256 27.7453 14.4098 23.0014 14.4098ZM23.0014 17.4242C26.0806 17.4242 28.5771 19.9204 28.5771 22.9999C28.5771 26.0791 26.0806 28.5757 23.0014 28.5757C19.9218 28.5757 17.4256 26.0791 17.4256 22.9999C17.4256 19.9204 19.9218 17.4242 23.0014 17.4242Z" fill="currentColor"/>
</g>
<defs>
<radialGradient id="paint0_radial_116_2288" cx="0" cy="0" r="1" gradientUnits="userSpaceOnUse" gradientTransform="translate(12.3846 49.1367) rotate(-90) scale(44.8948 41.7671)">
<stop stop-color="#FFDD55"/>
<stop offset="0.1" stop-color="#FFDD55"/>
<stop offset="0.5" stop-color="#FF543E"/>
<stop offset="1" stop-color="#C837AB"/>
</radialGradient>
<radialGradient id="paint1_radial_116_2288" cx="0" cy="0" r="1" gradientTransform="matrix(3.94 19.6778 -81.1332 16.2452 -7.24123 3.61176)" gradientUnits="userSpaceOnUse">
<stop stop-color="#3771C8"/>
<stop offset="0.128" stop-color="#3771C8"/>
<stop offset="1" stop-color="#6600FF" stop-opacity="0"/>
</radialGradient>
<clipPath id="clip0_116_2288">
<rect width="46.0014" height="46" fill="white"/>
</clipPath>
</defs>
</svg>
