<svg width="12" height="12" viewBox="0 0 12 12" fill="none" xmlns="http://www.w3.org/2000/svg">
<path d="M7.09077 0.500667C7.33867 0.341737 7.66955 0.430396 7.80478 0.691986L8.25266 1.55837C8.34236 1.7319 8.52492 1.8373 8.72005 1.82822L9.6943 1.7829C9.98846 1.76922 10.2307 2.01144 10.217 2.30559L10.1717 3.27984C10.1626 3.47498 10.268 3.65753 10.4415 3.74724L11.3079 4.19511C11.5695 4.33034 11.6582 4.66122 11.4992 4.90912L10.9729 5.73019C10.8674 5.89464 10.8674 6.10544 10.9729 6.26989L11.4992 7.09095C11.6582 7.33886 11.5695 7.66974 11.3079 7.80497L10.4415 8.25284C10.268 8.34255 10.1626 8.5251 10.1717 8.72024L10.217 9.69448C10.2307 9.98864 9.98846 10.2309 9.6943 10.2172L8.72005 10.1719C8.52492 10.1628 8.34236 10.2682 8.25266 10.4417L7.80478 11.3081C7.66955 11.5697 7.33867 11.6583 7.09077 11.4994L6.26971 10.973C6.10525 10.8676 5.89446 10.8676 5.73 10.973L4.90894 11.4994C4.66104 11.6583 4.33016 11.5697 4.19493 11.3081L3.74705 10.4417C3.65735 10.2682 3.47479 10.1628 3.27966 10.1719L2.30541 10.2172C2.01125 10.2309 1.76903 9.98864 1.78272 9.69448L1.82804 8.72024C1.83712 8.5251 1.73172 8.34255 1.55819 8.25284L0.691803 7.80497C0.430213 7.66974 0.341554 7.33886 0.500484 7.09095L1.02686 6.26989C1.13229 6.10544 1.13229 5.89464 1.02686 5.73019L0.500483 4.90912C0.341554 4.66122 0.430213 4.33034 0.691803 4.19511L1.55819 3.74724C1.73172 3.65753 1.83712 3.47498 1.82804 3.27984L1.78272 2.30559C1.76903 2.01144 2.01125 1.76922 2.30541 1.7829L3.27966 1.82822C3.47479 1.8373 3.65735 1.7319 3.74705 1.55837L4.19493 0.691986C4.33016 0.430396 4.66104 0.341737 4.90894 0.500667L5.73 1.02704C5.89446 1.13247 6.10525 1.13247 6.26971 1.02704L7.09077 0.500667Z" fill="#4192EF"/>
<path d="M3.97217 6.1523L5.20312 7.29563L7.99987 4.59912" stroke="#F3F4F6" stroke-linecap="round" stroke-linejoin="round"/>
</svg>
